<svg xmlns="http://www.w3.org/2000/svg" version="1.1" xmlns:xlink="http://www.w3.org/1999/xlink" xmlns:svgjs="http://svgjs.dev/svgjs" width="1500" height="871" viewBox="0 0 1500 871"><g transform="matrix(1,0,0,1,-0.9090909090909918,0.09212288341501562)"><svg viewBox="0 0 396 230" data-background-color="#ffffff" preserveAspectRatio="xMidYMid meet" height="871" width="1500" xmlns="http://www.w3.org/2000/svg" xmlns:xlink="http://www.w3.org/1999/xlink"><g id="tight-bounds" transform="matrix(1,0,0,1,0.2400000000000091,-0.02432636416240541)"><svg viewBox="0 0 395.52 230.0486527283248" height="230.0486527283248" width="395.52"><g><svg viewBox="0 0 397.4975999999999 231.1988959919664" height="230.0486527283248" width="395.52"><g><rect width="397.4975999999999" height="4.124608310687206" x="0" y="130.01345812965602" fill="#1552a3" opacity="1" stroke-width="0" stroke="transparent" fill-opacity="1" class="rect-yte-0" data-fill-palette-color="secondary" rx="1%" id="yte-0" data-palette-color="#1552a3"></rect></g><g transform="matrix(1,0,0,1,0.9887999999999693,144.93547039502175)"><svg viewBox="0 0 395.52 86.26342559694461" height="86.26342559694461" width="395.52"><g id="textblocktransform"><svg viewBox="0 0 395.52 86.26342559694461" height="86.26342559694461" width="395.52" id="textblock"><g><svg viewBox="0 0 395.52 45.736982813494585" height="45.736982813494585" width="395.52"><g transform="matrix(1,0,0,1,0,0)"><svg width="395.52" viewBox="-0.55 -41.5 471.27000000000004 54.5" height="45.736982813494585" data-palette-color="#1ff36e"><path d="M35-30L41.7-7.55 49.5-29.25Q50.2-31.2 50.5-32.35 50.8-33.5 50.8-34.35L50.8-34.35Q50.8-35.65 49.98-36.13 49.15-36.6 47.05-36.6L47.05-36.6 47.05-38.5 59.2-38.5 59.2-36.6Q56.9-36.6 55.73-35.65 54.55-34.7 53.75-32.55L53.75-32.55 41.2 0.5 39.45 0.5 29.85-27.95 19.2 0.5 17.45 0.5 7.05-28.2Q6.15-30.6 5.43-32.23 4.7-33.85 3.88-34.8 3.05-35.75 2-36.15 0.95-36.55-0.55-36.55L-0.55-36.55-0.55-38.5 15.75-38.5 15.75-36.55Q13.2-36.55 12.18-36.1 11.15-35.65 11.15-34.35L11.15-34.35Q11.15-33.7 11.35-32.85 11.55-32 11.95-30.85L11.95-30.85 19.55-7.7 25.7-25Q26.4-26.95 27.08-28.63 27.75-30.3 28.15-31.65L28.15-31.65Q27.45-33.1 26.88-34.05 26.3-35 25.73-35.55 25.15-36.1 24.53-36.33 23.9-36.55 23.2-36.55L23.2-36.55 23.2-38.5 38.5-38.5 38.5-36.55Q37.05-36.55 36.15-36.45 35.25-36.35 34.77-36.13 34.3-35.9 34.13-35.5 33.95-35.1 33.95-34.55L33.95-34.55Q33.95-33.8 34.23-32.73 34.5-31.65 35-30L35-30ZM79.5-6.05L81.05-4.65Q76.8 0.5 70.5 0.5L70.5 0.5Q67.55 0.5 65.15-0.48 62.75-1.45 61.02-3.23 59.3-5 58.35-7.48 57.4-9.95 57.4-12.95L57.4-12.95Q57.4-16 58.4-18.6 59.4-21.2 61.22-23.05 63.05-24.9 65.57-25.95 68.1-27 71.1-27L71.1-27Q75.95-27 78.6-24.38 81.25-21.75 81.25-16.85L81.25-16.85Q81.25-16.15 80.97-16 80.7-15.85 79.7-15.85L79.7-15.85 63.25-15.85Q63.15-15.45 63.1-14.88 63.05-14.3 63.05-13.6L63.05-13.6Q63.05-11 63.67-8.88 64.3-6.75 65.47-5.25 66.65-3.75 68.27-2.93 69.9-2.1 71.9-2.1L71.9-2.1Q74-2.1 75.8-3.03 77.6-3.95 79.5-6.05L79.5-6.05ZM63.6-18.15L72.8-18.15Q73.8-18.15 74.4-18.2 75-18.25 75.3-18.4 75.6-18.55 75.7-18.82 75.8-19.1 75.8-19.55L75.8-19.55Q75.8-21.85 74.32-23.23 72.85-24.6 70.3-24.6L70.3-24.6Q64.9-24.6 63.6-18.15L63.6-18.15ZM94.05-41.5L94.05-7.8Q94.05-5.9 94.2-4.75 94.35-3.6 94.82-2.95 95.3-2.3 96.17-2.05 97.05-1.8 98.5-1.75L98.5-1.75 98.5 0 84.7 0 84.7-1.75Q86.2-1.8 87.1-2.08 88-2.35 88.52-2.95 89.05-3.55 89.22-4.63 89.4-5.7 89.4-7.45L89.4-7.45 89.4-29Q89.4-31.7 89.32-33.52 89.25-35.35 89.1-36L89.1-36Q88.85-37.15 87.92-37.55 87-37.95 84.6-37.95L84.6-37.95 84.6-39.65 94.05-41.5ZM110.29-41.5L110.29-7.8Q110.29-5.9 110.44-4.75 110.59-3.6 111.07-2.95 111.54-2.3 112.42-2.05 113.29-1.8 114.74-1.75L114.74-1.75 114.74 0 100.94 0 100.94-1.75Q102.44-1.8 103.34-2.08 104.24-2.35 104.77-2.95 105.29-3.55 105.47-4.63 105.64-5.7 105.64-7.45L105.64-7.45 105.64-29Q105.64-31.7 105.57-33.52 105.49-35.35 105.34-36L105.34-36Q105.09-37.15 104.17-37.55 103.24-37.95 100.84-37.95L100.84-37.95 100.84-39.65 110.29-41.5ZM135.99 0L117.99 0 117.99-1.9Q119.94-1.95 121.12-2.2 122.29-2.45 122.92-3.05 123.54-3.65 123.77-4.75 123.99-5.85 123.99-7.6L123.99-7.6 123.99-30.9Q123.99-32.65 123.82-33.73 123.64-34.8 123.12-35.43 122.59-36.05 121.59-36.27 120.59-36.5 118.99-36.6L118.99-36.6 118.99-38.5 133.94-38.5Q140.69-38.5 144.44-36.1 148.19-33.7 148.19-29.35L148.19-29.35Q148.19-26.05 146.12-23.95 144.04-21.85 139.54-20.5L139.54-20.5 139.54-20.3Q141.09-20.15 142.24-19.95 143.39-19.75 144.29-19.48 145.19-19.2 145.97-18.8 146.74-18.4 147.49-17.9L147.49-17.9Q151.94-14.75 151.94-10L151.94-10Q151.94-7.35 150.47-5.08 148.99-2.8 146.34-1.5L146.34-1.5Q145.49-1.05 144.59-0.78 143.69-0.5 142.49-0.33 141.29-0.15 139.72-0.08 138.14 0 135.99 0L135.99 0ZM136.14-2.15L136.14-2.15Q145.19-2.15 145.19-9.9L145.19-9.9Q145.19-15.55 140.54-17.8L140.54-17.8Q139.74-18.15 138.99-18.4 138.24-18.65 137.24-18.78 136.24-18.9 134.87-18.95 133.49-19 131.49-19L131.49-19 129.24-19 129.24-7.85Q129.24-4.8 130.84-3.48 132.44-2.15 136.14-2.15ZM129.24-21.5L132.04-21.5Q133.59-21.5 134.64-21.55 135.69-21.6 136.44-21.73 137.19-21.85 137.77-22.08 138.34-22.3 138.94-22.7L138.94-22.7Q140.54-23.7 141.22-25.1 141.89-26.5 141.89-28.75L141.89-28.75Q141.89-32.7 139.97-34.43 138.04-36.15 133.94-36.15L133.94-36.15 130.09-36.15Q129.24-36.15 129.24-35.3L129.24-35.3 129.24-21.5ZM178.99-6.05L180.54-4.65Q176.29 0.5 169.99 0.5L169.99 0.5Q167.04 0.5 164.64-0.48 162.24-1.45 160.51-3.23 158.79-5 157.84-7.48 156.89-9.95 156.89-12.95L156.89-12.95Q156.89-16 157.89-18.6 158.89-21.2 160.71-23.05 162.54-24.9 165.06-25.95 167.59-27 170.59-27L170.59-27Q175.44-27 178.09-24.38 180.74-21.75 180.74-16.85L180.74-16.85Q180.74-16.15 180.46-16 180.19-15.85 179.19-15.85L179.19-15.85 162.74-15.85Q162.64-15.45 162.59-14.88 162.54-14.3 162.54-13.6L162.54-13.6Q162.54-11 163.16-8.88 163.79-6.75 164.96-5.25 166.14-3.75 167.76-2.93 169.39-2.1 171.39-2.1L171.39-2.1Q173.49-2.1 175.29-3.03 177.09-3.95 178.99-6.05L178.99-6.05ZM163.09-18.15L172.29-18.15Q173.29-18.15 173.89-18.2 174.49-18.25 174.79-18.4 175.09-18.55 175.19-18.82 175.29-19.1 175.29-19.55L175.29-19.55Q175.29-21.85 173.81-23.23 172.34-24.6 169.79-24.6L169.79-24.6Q164.39-24.6 163.09-18.15L163.09-18.15ZM194.49-27L194.49-7.95Q194.49-6 194.66-4.83 194.84-3.65 195.34-2.98 195.84-2.3 196.74-2.05 197.64-1.8 199.14-1.75L199.14-1.75 199.14 0 184.79 0 184.79-1.75Q186.29-1.8 187.24-2.08 188.19-2.35 188.71-2.98 189.24-3.6 189.41-4.73 189.59-5.85 189.59-7.6L189.59-7.6 189.59-14Q189.59-16.9 189.51-18.78 189.44-20.65 189.24-21.35L189.24-21.35Q188.99-22.5 188.09-22.93 187.19-23.35 184.69-23.35L184.69-23.35 184.69-25.1 194.49-27ZM188.74-37.15L188.74-37.15Q188.74-38.45 189.64-39.35 190.54-40.25 191.84-40.25L191.84-40.25Q193.14-40.25 194.04-39.35 194.94-38.45 194.94-37.15L194.94-37.15Q194.94-35.85 194.04-34.95 193.14-34.05 191.84-34.05L191.84-34.05Q190.54-34.05 189.64-34.95 188.74-35.85 188.74-37.15ZM210.93-14.55L210.93-7.85Q210.93-5.8 211.03-4.63 211.13-3.45 211.56-2.83 211.98-2.2 212.81-2 213.63-1.8 215.08-1.7L215.08-1.7 215.08 0 201.98 0 201.98-1.7Q203.38-1.8 204.21-2 205.03-2.2 205.48-2.8 205.93-3.4 206.06-4.5 206.18-5.6 206.18-7.5L206.18-7.5 206.18-14.15Q206.18-20.1 205.88-21.4L205.88-21.4Q205.73-22.05 205.51-22.48 205.28-22.9 204.83-23.13 204.38-23.35 203.68-23.43 202.98-23.5 201.88-23.5L201.88-23.5 201.88-25.1 209.88-27 210.48-22.05 210.68-22.05Q212.58-24.4 215.13-25.7 217.68-27 220.68-27L220.68-27Q222.98-27 224.88-26.25 226.78-25.5 227.78-24.2L227.78-24.2Q228.63-23.05 228.98-21.23 229.33-19.4 229.33-16.2L229.33-16.2 229.33-7.85Q229.33-5.8 229.46-4.63 229.58-3.45 229.98-2.83 230.38-2.2 231.21-2 232.03-1.8 233.38-1.7L233.38-1.7 233.38 0 220.43 0 220.43-1.7Q221.83-1.75 222.66-1.98 223.48-2.2 223.91-2.8 224.33-3.4 224.46-4.53 224.58-5.65 224.58-7.5L224.58-7.5 224.58-14.1Q224.58-16.95 224.28-18.9 223.98-20.85 223.31-22.05 222.63-23.25 221.53-23.78 220.43-24.3 218.88-24.3L218.88-24.3Q216.63-24.3 214.76-23.13 212.88-21.95 211.83-19.9L211.83-19.9Q211.58-19.4 211.41-18.95 211.23-18.5 211.13-17.9 211.03-17.3 210.98-16.53 210.93-15.75 210.93-14.55L210.93-14.55ZM248.28-10.75L248.28-10.75Q250.38-10.75 251.56-12.65 252.73-14.55 252.73-18L252.73-18Q252.73-21.4 251.56-23.28 250.38-25.15 248.23-25.15L248.23-25.15Q246.08-25.15 244.81-23.25 243.53-21.35 243.53-18.05L243.53-18.05Q243.53-14.75 244.83-12.75 246.13-10.75 248.28-10.75ZM245.53-4.9L245.53-4.9Q246.73-4.8 247.73-4.7 248.73-4.6 249.71-4.5 250.68-4.4 251.66-4.25 252.63-4.1 253.78-3.95L253.78-3.95Q257.38-3.4 259.56-1.18 261.73 1.05 261.73 4.4L261.73 4.4Q261.73 8.6 258.41 10.8 255.08 13 248.78 13L248.78 13Q245.98 13 243.66 12.5 241.33 12 239.68 11.08 238.03 10.15 237.11 8.85 236.18 7.55 236.18 6L236.18 6Q236.18 4.95 236.53 4.05 236.88 3.15 237.48 2.48 238.08 1.8 238.91 1.4 239.73 1 240.63 1L240.63 1Q242.33 1 243.68 2.05L243.68 2.05Q242.33 2.35 241.48 3.53 240.63 4.7 240.63 6.2L240.63 6.2Q240.63 8.4 242.81 9.6 244.98 10.8 248.98 10.8L248.98 10.8Q257.53 10.8 257.53 5.55L257.53 5.55Q257.53 3.55 256.18 2.23 254.83 0.9 252.98 0.65L252.98 0.65Q251.78 0.5 250.51 0.33 249.23 0.15 248.01 0 246.78-0.15 245.73-0.25 244.68-0.35 244.03-0.45L244.03-0.45Q241.23-0.75 239.78-1.95 238.33-3.15 238.33-5.25L238.33-5.25Q238.33-7 239.78-8.35 241.23-9.7 243.43-10.05L243.43-10.05 243.43-10.25Q242.33-10.7 241.38-11.53 240.43-12.35 239.76-13.4 239.08-14.45 238.68-15.68 238.28-16.9 238.28-18.2L238.28-18.2Q238.28-20.1 239.01-21.7 239.73-23.3 241.06-24.48 242.38-25.65 244.18-26.33 245.98-27 248.13-27L248.13-27Q250.33-27 252.28-26.33 254.23-25.65 255.63-24.35L255.63-24.35Q257.33-25.75 258.63-26.38 259.93-27 261.08-27L261.08-27Q262.88-27 263.96-26.18 265.03-25.35 265.03-23.95L265.03-23.95Q265.03-23.1 264.46-22.6 263.88-22.1 263.03-22.1L263.03-22.1Q262.33-22.1 261.88-22.35 261.43-22.6 261.06-22.88 260.68-23.15 260.28-23.4 259.88-23.65 259.28-23.65L259.28-23.65Q258.08-23.65 256.83-22.8L256.83-22.8Q258.03-20.95 258.03-18.15L258.03-18.15Q258.03-13.9 255.38-11.48 252.73-9.05 247.43-8.65L247.43-8.65Q244.38-8.4 243.18-8 241.98-7.6 241.98-6.55L241.98-6.55Q241.98-5.75 242.88-5.38 243.78-5 245.53-4.9ZM297.73-30L304.43-7.55 312.23-29.25Q312.93-31.2 313.23-32.35 313.53-33.5 313.53-34.35L313.53-34.35Q313.53-35.65 312.7-36.13 311.88-36.6 309.78-36.6L309.78-36.6 309.78-38.5 321.93-38.5 321.93-36.6Q319.63-36.6 318.45-35.65 317.28-34.7 316.48-32.55L316.48-32.55 303.93 0.5 302.18 0.5 292.58-27.95 281.93 0.5 280.18 0.5 269.78-28.2Q268.88-30.6 268.15-32.23 267.43-33.85 266.6-34.8 265.78-35.75 264.73-36.15 263.68-36.55 262.18-36.55L262.18-36.55 262.18-38.5 278.48-38.5 278.48-36.55Q275.93-36.55 274.9-36.1 273.88-35.65 273.88-34.35L273.88-34.35Q273.88-33.7 274.08-32.85 274.28-32 274.68-30.85L274.68-30.85 282.28-7.7 288.43-25Q289.13-26.95 289.8-28.63 290.48-30.3 290.88-31.65L290.88-31.65Q290.18-33.1 289.6-34.05 289.03-35 288.45-35.55 287.88-36.1 287.25-36.33 286.63-36.55 285.93-36.55L285.93-36.55 285.93-38.5 301.23-38.5 301.23-36.55Q299.78-36.55 298.88-36.45 297.98-36.35 297.5-36.13 297.03-35.9 296.85-35.5 296.68-35.1 296.68-34.55L296.68-34.55Q296.68-33.8 296.95-32.73 297.23-31.65 297.73-30L297.73-30ZM333.83-27L333.83-27Q336.68-27 339.23-25.98 341.78-24.95 343.7-23.15 345.63-21.35 346.75-18.88 347.88-16.4 347.88-13.45L347.88-13.45Q347.88-10.4 346.75-7.85 345.63-5.3 343.7-3.45 341.78-1.6 339.23-0.55 336.68 0.5 333.83 0.5L333.83 0.5Q331.03 0.5 328.5-0.53 325.98-1.55 324.08-3.4 322.18-5.25 321.08-7.83 319.98-10.4 319.98-13.45L319.98-13.45Q319.98-16.4 321.08-18.9 322.18-21.4 324.08-23.2 325.98-25 328.5-26 331.03-27 333.83-27ZM333.83-24.6L333.83-24.6Q331.98-24.6 330.45-23.8 328.93-23 327.85-21.53 326.78-20.05 326.2-17.98 325.63-15.9 325.63-13.4L325.63-13.4Q325.63-10.8 326.2-8.7 326.78-6.6 327.85-5.13 328.93-3.65 330.43-2.85 331.93-2.05 333.83-2.05L333.83-2.05Q335.73-2.05 337.28-2.85 338.83-3.65 339.93-5.15 341.03-6.65 341.63-8.75 342.23-10.85 342.23-13.4L342.23-13.4Q342.23-15.9 341.63-17.95 341.03-20 339.93-21.48 338.83-22.95 337.28-23.78 335.73-24.6 333.83-24.6ZM361.07-14.55L361.07-7.85Q361.07-5.8 361.17-4.63 361.27-3.45 361.7-2.83 362.12-2.2 362.95-2 363.77-1.8 365.22-1.7L365.22-1.7 365.22 0 352.12 0 352.12-1.7Q353.52-1.8 354.35-2 355.17-2.2 355.62-2.8 356.07-3.4 356.2-4.5 356.32-5.6 356.32-7.5L356.32-7.5 356.32-14.15Q356.32-20.1 356.02-21.4L356.02-21.4Q355.87-22.05 355.65-22.48 355.42-22.9 354.97-23.13 354.52-23.35 353.82-23.43 353.12-23.5 352.02-23.5L352.02-23.5 352.02-25.1 360.02-27 360.62-22.05 360.82-22.05Q362.72-24.4 365.27-25.7 367.82-27 370.82-27L370.82-27Q373.12-27 375.02-26.25 376.92-25.5 377.92-24.2L377.92-24.2Q378.77-23.05 379.12-21.23 379.47-19.4 379.47-16.2L379.47-16.2 379.47-7.85Q379.47-5.8 379.6-4.63 379.72-3.45 380.12-2.83 380.52-2.2 381.35-2 382.17-1.8 383.52-1.7L383.52-1.7 383.52 0 370.57 0 370.57-1.7Q371.97-1.75 372.8-1.98 373.62-2.2 374.05-2.8 374.47-3.4 374.6-4.53 374.72-5.65 374.72-7.5L374.72-7.5 374.72-14.1Q374.72-16.95 374.42-18.9 374.12-20.85 373.45-22.05 372.77-23.25 371.67-23.78 370.57-24.3 369.02-24.3L369.02-24.3Q366.77-24.3 364.9-23.13 363.02-21.95 361.97-19.9L361.97-19.9Q361.72-19.4 361.55-18.95 361.37-18.5 361.27-17.9 361.17-17.3 361.12-16.53 361.07-15.75 361.07-14.55L361.07-14.55ZM408.92 0.5L408.92-4.2 408.72-4.2Q406.92-1.65 404.9-0.58 402.87 0.5 400.12 0.5L400.12 0.5Q397.27 0.5 394.9-0.53 392.52-1.55 390.8-3.38 389.07-5.2 388.1-7.75 387.12-10.3 387.12-13.3L387.12-13.3Q387.12-16.25 388.1-18.78 389.07-21.3 390.8-23.13 392.52-24.95 394.92-25.98 397.32-27 400.12-27L400.12-27Q402.52-27 404.4-26.2 406.27-25.4 408.02-23.65L408.02-23.65 408.02-28.75Q408.02-31.6 407.95-33.5 407.87-35.4 407.72-36.1L407.72-36.1Q407.47-37.2 406.32-37.65 405.17-38.1 402.57-38.1L402.57-38.1 402.57-39.6 412.82-41.5 412.82-12.65Q412.82-9.2 412.87-6.98 412.92-4.75 413.17-3.8L413.17-3.8Q413.32-3.2 413.55-2.8 413.77-2.4 414.2-2.18 414.62-1.95 415.35-1.85 416.07-1.75 417.22-1.75L417.22-1.75 417.22-0.05 408.92 0.5ZM407.92-11.95L407.92-15.25Q407.92-17.85 407.65-19.2 407.37-20.55 406.57-21.55L406.57-21.55Q405.42-23.05 403.65-23.83 401.87-24.6 400.12-24.6L400.12-24.6Q396.52-24.6 394.65-21.63 392.77-18.65 392.77-13.55L392.77-13.55Q392.77-10.9 393.25-8.75 393.72-6.6 394.65-5.08 395.57-3.55 396.95-2.73 398.32-1.9 400.12-1.9L400.12-1.9Q401.02-1.9 401.95-2.1 402.87-2.3 403.75-2.73 404.62-3.15 405.37-3.73 406.12-4.3 406.62-5.05L406.62-5.05Q407.32-6.15 407.62-7.7 407.92-9.25 407.92-11.95L407.92-11.95ZM443.02-6.05L444.57-4.65Q440.32 0.5 434.02 0.5L434.02 0.5Q431.07 0.5 428.67-0.48 426.27-1.45 424.54-3.23 422.82-5 421.87-7.48 420.92-9.95 420.92-12.95L420.92-12.95Q420.92-16 421.92-18.6 422.92-21.2 424.74-23.05 426.57-24.9 429.09-25.95 431.62-27 434.62-27L434.62-27Q439.47-27 442.12-24.38 444.77-21.75 444.77-16.85L444.77-16.85Q444.77-16.15 444.49-16 444.22-15.85 443.22-15.85L443.22-15.85 426.77-15.85Q426.67-15.45 426.62-14.88 426.57-14.3 426.57-13.6L426.57-13.6Q426.57-11 427.19-8.88 427.82-6.75 428.99-5.25 430.17-3.75 431.79-2.93 433.42-2.1 435.42-2.1L435.42-2.1Q437.52-2.1 439.32-3.03 441.12-3.95 443.02-6.05L443.02-6.05ZM427.12-18.15L436.32-18.15Q437.32-18.15 437.92-18.2 438.52-18.25 438.82-18.4 439.12-18.55 439.22-18.82 439.32-19.1 439.32-19.55L439.32-19.55Q439.32-21.85 437.84-23.23 436.37-24.6 433.82-24.6L433.82-24.6Q428.42-24.6 427.12-18.15L427.12-18.15ZM458.22-9.65L458.22-7.95Q458.22-5.9 458.31-4.7 458.42-3.5 458.84-2.88 459.26-2.25 460.06-2.05 460.87-1.85 462.31-1.75L462.31-1.75 462.31 0 449.01 0 449.01-1.75Q450.47-1.8 451.31-2.02 452.17-2.25 452.62-2.85 453.06-3.45 453.19-4.58 453.31-5.7 453.31-7.6L453.31-7.6 453.31-13.45Q453.31-16.85 453.24-18.75 453.17-20.65 452.74-21.55 452.31-22.45 451.42-22.63 450.51-22.8 448.92-22.8L448.92-22.8 448.92-24.55 457.67-26.45 458.37-20.25 458.56-20.25Q459.22-21.75 460.19-23 461.17-24.25 462.31-25.13 463.47-26 464.72-26.5 465.97-27 467.26-27L467.26-27Q468.87-27 469.79-26.23 470.72-25.45 470.72-24.15L470.72-24.15Q470.72-22.95 469.97-22.28 469.22-21.6 467.81-21.6L467.81-21.6Q467.01-21.6 466.47-21.8 465.92-22 465.49-22.23 465.06-22.45 464.69-22.65 464.31-22.85 463.87-22.85L463.87-22.85Q462.51-22.85 461.17-21.13 459.81-19.4 459.06-16.75L459.06-16.75Q458.67-15.3 458.44-13.48 458.22-11.65 458.22-9.65L458.22-9.65Z" opacity="1" transform="matrix(1,0,0,1,0,0)" fill="#1ff36e" class="wordmark-text-0" data-fill-palette-color="primary" id="text-0"></path></svg></g></svg></g><g transform="matrix(1,0,0,1,76.76644237869732,56.534386768173135)"><svg viewBox="0 0 241.98711524260534 29.729038828771483" height="29.729038828771483" width="241.98711524260534"><g transform="matrix(1,0,0,1,0,0)"><svg width="241.98711524260534" viewBox="-1.75 -36.05 299.92 36.849999999999994" height="29.729038828771483" data-palette-color="#1552a3"><path d="M29.5-0.9L33.65-0.4 33.65 0 21.4 0 21.4-0.4 25.5-0.9 20.8-13.7 8.7-13.7 4.55-2.65Q4.35-2.1 4.35-1.75L4.35-1.75Q4.35-1.2 4.67-0.98 5-0.75 5.85-0.65L5.85-0.65 8.9-0.4 8.9 0-1.75 0-1.75-0.4 1.05-0.65Q2.3-0.75 2.83-1.15 3.35-1.55 3.75-2.65L3.75-2.65 16-35.3 16.9-35.3 29.5-0.9ZM9-14.5L20.5-14.5 14.9-29.75 14.7-29.75 9-14.5ZM80.69-34.5L91.34-34.5 91.34-34.1 88.55-33.85Q87.2-33.75 86.7-33.38 86.2-33 85.84-31.85L85.84-31.85 75.9 0.8 75.09 0.8 66.34-24.1 58.75 0.8 57.95 0.8 45.8-33.7 41.7-34.1 41.7-34.5 54.2-34.5 54.2-34.1 49.84-33.7 59.7-5.6 59.9-5.6 65.9-25.3 62.95-33.7 58.84-34.1 58.84-34.5 71.34-34.5 71.34-34.1 67-33.7 76.84-5.6 77.05-5.6 85.05-31.85Q85.2-32.4 85.2-32.8L85.2-32.8Q85.2-33.35 84.9-33.58 84.59-33.8 83.75-33.85L83.75-33.85 80.69-34.1 80.69-34.5ZM103.84-5.1L104.29-5.7 104.49-5.6 104.29-5.05Q103.29-2.4 101.32-0.95 99.34 0.5 96.59 0.5L96.59 0.5Q93.89 0.5 91.79-0.9 89.69-2.3 88.52-4.8 87.34-7.3 87.34-10.55L87.34-10.55Q87.34-13.8 88.59-16.35 89.84-18.9 92.14-20.3 94.44-21.7 97.39-21.7L97.39-21.7Q100.89-21.7 102.77-19.63 104.64-17.55 104.69-13.6L104.69-13.6 104.39-13.35 90.89-13.35Q90.79-12.05 90.79-11.3L90.79-11.3Q90.79-6.75 92.64-4.38 94.49-2 97.79-2L97.79-2Q99.49-2 101.07-2.78 102.64-3.55 103.84-5.1L103.84-5.1ZM96.84-21.15Q94.49-21.15 92.94-19.2 91.39-17.25 90.94-13.9L90.94-13.9 100.64-14.25Q100.79-14.85 100.79-16.25L100.79-16.25Q100.79-18.95 99.77-20.05 98.74-21.15 96.84-21.15L96.84-21.15ZM113.69-0.8L113.69-36.05 113.29-36.05 107.49-34.1 107.49-33.75 110.44-32.65 110.44-0.8 107.39-0.4 107.39 0 116.74 0 116.74-0.4 113.69-0.8ZM124.84-0.8L124.84-36.05 124.44-36.05 118.64-34.1 118.64-33.75 121.59-32.65 121.59-0.8 118.54-0.4 118.54 0 127.89 0 127.89-0.4 124.84-0.8ZM148.09-0.8L151.09-0.4 151.09 0 141.79 0 141.79-0.4 144.84-0.8 144.84-13.55Q144.84-15.5 144.74-16.45 144.64-17.4 144.34-18.05L144.34-18.05Q143.94-18.9 143.01-19.38 142.09-19.85 140.89-19.85L140.89-19.85Q138.34-19.85 136.34-17.7L136.34-17.7 136.34-0.8 139.39-0.4 139.39 0 130.04 0 130.04-0.4 133.09-0.8 133.09-18.05 130.14-19.15 130.14-19.5 135.79-21.45 136.19-21.45 136.19-18.3Q139.39-21.7 142.89-21.7L142.89-21.7Q144.44-21.7 145.71-21.03 146.99-20.35 147.54-19.25L147.54-19.25Q147.89-18.6 147.99-17.48 148.09-16.35 148.09-13.55L148.09-13.55 148.09-0.8ZM170.38-5.1L170.83-5.7 171.03-5.6 170.83-5.05Q169.83-2.4 167.86-0.95 165.88 0.5 163.13 0.5L163.13 0.5Q160.43 0.5 158.33-0.9 156.23-2.3 155.06-4.8 153.88-7.3 153.88-10.55L153.88-10.55Q153.88-13.8 155.13-16.35 156.38-18.9 158.68-20.3 160.98-21.7 163.93-21.7L163.93-21.7Q167.43-21.7 169.31-19.63 171.18-17.55 171.23-13.6L171.23-13.6 170.93-13.35 157.43-13.35Q157.33-12.05 157.33-11.3L157.33-11.3Q157.33-6.75 159.18-4.38 161.03-2 164.33-2L164.33-2Q166.03-2 167.61-2.78 169.18-3.55 170.38-5.1L170.38-5.1ZM163.38-21.15Q161.03-21.15 159.48-19.2 157.93-17.25 157.48-13.9L157.48-13.9 167.18-14.25Q167.33-14.85 167.33-16.25L167.33-16.25Q167.33-18.95 166.31-20.05 165.28-21.15 163.38-21.15L163.38-21.15ZM182.78-21.7Q179.28-21.7 177.36-20.15 175.43-18.6 175.43-15.8L175.43-15.8Q175.43-14.05 176.13-12.9 176.83-11.75 177.86-11.08 178.88-10.4 180.58-9.55L180.58-9.55Q182.88-8.45 184.03-7.4 185.18-6.35 185.18-4.3L185.18-4.3Q185.18-2.4 184.08-1.23 182.98-0.05 181.13-0.05L181.13-0.05Q179.08-0.05 177.81-1.73 176.53-3.4 176.03-6.9L176.03-6.9 175.43-6.9 175.68-0.4Q176.73 0 178.23 0.25 179.73 0.5 180.93 0.5L180.93 0.5Q184.23 0.5 186.18-1.28 188.13-3.05 188.13-6.1L188.13-6.1Q188.13-7.95 187.41-9.15 186.68-10.35 185.66-11.03 184.63-11.7 182.88-12.5L182.88-12.5Q180.63-13.55 179.53-14.53 178.43-15.5 178.43-17.4L178.43-17.4Q178.43-19.1 179.43-20.13 180.43-21.15 182.08-21.15L182.08-21.15Q183.88-21.15 184.96-19.8 186.03-18.45 186.73-15.45L186.73-15.45 187.28-15.45 187.28-21Q186.48-21.3 185.23-21.5 183.98-21.7 182.78-21.7L182.78-21.7ZM199.98-21.7Q196.48-21.7 194.55-20.15 192.63-18.6 192.63-15.8L192.63-15.8Q192.63-14.05 193.33-12.9 194.03-11.75 195.05-11.08 196.08-10.4 197.78-9.55L197.78-9.55Q200.08-8.45 201.23-7.4 202.38-6.35 202.38-4.3L202.38-4.3Q202.38-2.4 201.28-1.23 200.18-0.05 198.33-0.05L198.33-0.05Q196.28-0.05 195-1.73 193.73-3.4 193.23-6.9L193.23-6.9 192.63-6.9 192.88-0.4Q193.93 0 195.43 0.25 196.93 0.5 198.13 0.5L198.13 0.5Q201.43 0.5 203.38-1.28 205.33-3.05 205.33-6.1L205.33-6.1Q205.33-7.95 204.6-9.15 203.88-10.35 202.85-11.03 201.83-11.7 200.08-12.5L200.08-12.5Q197.83-13.55 196.73-14.53 195.63-15.5 195.63-17.4L195.63-17.4Q195.63-19.1 196.63-20.13 197.63-21.15 199.28-21.15L199.28-21.15Q201.08-21.15 202.15-19.8 203.23-18.45 203.93-15.45L203.93-15.45 204.48-15.45 204.48-21Q203.68-21.3 202.43-21.5 201.18-21.7 199.98-21.7L199.98-21.7ZM253.97-34.1L249.87-33.7 249.87-0.8 253.97-0.4 253.97 0 241.67 0 241.67-0.4 246.02-0.8 246.02-17.75 229.37-17.75 229.37-0.8 233.72-0.4 233.72 0 221.42 0 221.42-0.4 225.52-0.8 225.52-33.7 221.42-34.1 221.42-34.5 233.72-34.5 233.72-34.1 229.37-33.7 229.37-18.55 246.02-18.55 246.02-33.7 241.67-34.1 241.67-34.5 253.97-34.5 253.97-34.1ZM272.97-3.1L275.72-2.5 275.72-2.25 270.27 0.25 269.97 0.25 269.97-3.15 269.82-3.2Q266.87 0.5 263.47 0.5L263.47 0.5Q261.92 0.5 260.72-0.15 259.52-0.8 258.97-1.95L258.97-1.95Q258.62-2.6 258.52-3.73 258.42-4.85 258.42-7.65L258.42-7.65 258.42-20.4 255.42-20.8 255.42-21.2 261.67-21.2 261.67-7.65Q261.67-5.65 261.77-4.73 261.87-3.8 262.17-3.15L262.17-3.15Q262.52-2.35 263.35-1.88 264.17-1.4 265.22-1.4L265.22-1.4Q266.47-1.4 267.62-2.02 268.77-2.65 269.72-3.85L269.72-3.85 269.72-20.4 266.72-20.8 266.72-21.2 272.97-21.2 272.97-3.1ZM288.12 0.5Q290.97 0.5 293.27-1.05 295.57-2.6 296.87-5.3 298.17-8 298.17-11.4L298.17-11.4Q298.17-14.45 297.12-16.78 296.07-19.1 294.17-20.4 292.27-21.7 289.82-21.7L289.82-21.7Q286.32-21.7 283.67-18.85L283.67-18.85 283.67-36.05 283.27-36.05 277.47-34.1 277.47-33.75 280.42-32.65 280.42 0 280.82 0 282.32-1.35 282.52-1.35Q284.97 0.5 288.12 0.5L288.12 0.5ZM288.07 0Q286.07 0 284.87-1.38 283.67-2.75 283.67-5.05L283.67-5.05 283.67-18.1Q284.42-19.1 285.59-19.65 286.77-20.2 288.12-20.2L288.12-20.2Q291.07-20.2 292.74-17.55 294.42-14.9 294.42-10.35L294.42-10.35Q294.42-5.65 292.69-2.83 290.97 0 288.07 0L288.07 0Z" opacity="1" transform="matrix(1,0,0,1,0,0)" fill="#1552a3" class="slogan-text-1" data-fill-palette-color="secondary" id="text-1"></path></svg></g></svg></g></svg></g></svg></g><g transform="matrix(1,0,0,1,116.63409612452166,0)"><svg viewBox="0 0 164.2294077509566 119.21605417497747" height="119.21605417497747" width="164.2294077509566"><g><svg xmlns="http://www.w3.org/2000/svg" xmlns:xlink="http://www.w3.org/1999/xlink" version="1.1" x="8" y="0" viewBox="0 9.786 100.00034525290005 80.42699999999999" enable-background="new 0 0 100 100" xml:space="preserve" id="icon-0" width="148.2294077509566" height="119.21605417497747" class="icon-icon-0" data-fill-palette-color="accent"><path d="M49.942 52.994L90.595 51.529C88.068 47.352 87.436 43.698 82.606 43.068 75.377 42.128 68.148 41.185 60.918 40.242L18.843 34.762C20.101 36.792 39.724 53.361 49.942 52.994" fill="#1552a3" data-fill-palette-color="accent"></path><path d="M0 9.786C4.391 17.043 26.615 32.858 32.953 33.672 50.283 35.903 67.61 38.132 84.939 40.36 81.546 34.753 80.759 31.01 74.627 29.401L47.91 22.378C31.94 18.182 15.97 13.984 0 9.786" fill="#1552a3" data-fill-palette-color="accent"></path><path d="M63.108 66.207L94.349 59.547C92.321 56.201 92.315 54.188 88.522 54.358 82.364 54.631 76.208 54.907 70.051 55.18 58.708 55.686 47.365 56.194 36.023 56.698 37.298 58.064 54.94 67.947 63.108 66.207" fill="#1552a3" data-fill-palette-color="accent"></path><path d="M87.682 90.213C93.407 86.494 94.944 82.492 98.201 76.406 101.852 69.582 99.458 68.562 95.38 61.81 94.963 61.122 89.538 62.042 88.927 62.714 88.182 63.532 88.679 68.169 88.633 69.21z" fill="#1552a3" data-fill-palette-color="accent"></path><path d="M86.35 63.447C82.555 64.256 77.746 63.638 76.778 67.676L72.658 84.887C81.904 82.678 86.028 71.582 86.35 63.447" fill="#1552a3" data-fill-palette-color="accent"></path><path d="M74.666 66.121C65.518 68.074 65.71 70.732 61.787 79.301 68.007 78.711 73.811 71.941 74.666 66.121" fill="#1552a3" data-fill-palette-color="accent"></path></svg></g></svg></g><g><rect width="40.100976124521694" height="4.124608310687206" y="114.09144586429026" x="280.8635038754783" fill="#1552a3" data-fill-palette-color="secondary"></rect><rect width="40.100976124521694" height="4.124608310687206" y="114.09144586429026" x="76.53311999999997" fill="#1552a3" data-fill-palette-color="secondary"></rect></g></svg></g><defs></defs></svg><rect width="395.52" height="230.0486527283248" fill="none" stroke="none" visibility="hidden"></rect></g></svg></g></svg>